<svg id="svg" version="1.1" xmlns="http://www.w3.org/2000/svg" xmlns:xlink="http://www.w3.org/1999/xlink" width="400" height="266.3358147229115" viewBox="0, 0, 400,266.3358147229115"><g id="svgg"><path id="path1" d="M240.612 49.742 C 256.412 59.229,258.568 89.491,244.573 105.329 C 238.410 112.305,225.173 118.588,216.642 118.588 C 215.654 118.588,215.652 118.560,216.880 121.555 C 222.248 134.647,223.632 148.367,220.891 161.336 L 220.277 164.245 222.112 165.950 C 234.140 177.123,253.189 180.627,274.417 175.571 C 276.922 174.974,277.583 174.552,276.016 174.549 C 268.628 174.534,258.502 167.673,254.426 159.920 C 252.028 155.360,251.684 153.765,253.098 153.763 C 256.513 153.760,263.180 151.943,267.688 149.786 C 284.284 141.847,295.073 126.365,294.985 110.613 C 294.958 105.931,294.898 105.874,293.089 108.805 C 287.523 117.822,278.166 122.835,266.889 122.843 C 263.733 122.845,263.644 122.715,265.329 120.566 C 281.282 100.222,280.129 78.502,262.192 61.446 C 255.387 54.975,246.114 49.674,240.240 48.895 L 238.907 48.719 240.612 49.742 M205.996 63.561 C 205.190 63.779,202.688 64.864,200.435 65.971 C 194.845 68.719,192.251 69.406,188.208 69.210 C 185.955 69.101,185.210 69.145,185.210 69.388 C 185.210 70.078,187.936 73.817,189.485 75.251 L 191.113 76.758 190.698 77.886 C 188.687 83.349,188.408 89.621,189.717 99.933 C 190.869 109.012,191.030 111.026,190.921 114.990 C 190.657 124.586,187.865 131.096,181.040 138.028 C 177.831 141.288,177.825 141.130,181.144 140.753 C 188.327 139.936,195.405 136.422,198.934 131.920 L 200.000 130.560 200.365 131.436 C 200.994 132.948,202.454 138.324,203.027 141.239 C 207.418 163.580,200.560 184.880,184.995 197.250 C 182.750 199.034,182.751 199.108,185.006 197.970 C 192.191 194.343,200.887 187.562,205.498 181.989 C 218.879 165.821,219.935 148.169,209.506 114.955 C 201.488 89.421,209.394 69.980,228.458 68.351 C 230.743 68.156,230.866 67.964,229.734 66.356 C 228.012 63.909,221.933 63.077,215.590 64.421 L 213.324 64.901 211.695 64.154 C 209.672 63.228,207.903 63.044,205.996 63.561 M141.711 64.449 C 133.178 69.085,124.073 80.268,120.207 90.859 C 113.409 109.487,119.729 127.711,137.308 140.166 C 138.927 141.313,138.911 141.380,136.863 142.013 C 125.609 145.489,114.542 143.094,106.777 135.501 C 104.588 133.360,104.577 133.366,105.229 136.341 C 110.905 162.254,149.296 176.997,176.217 163.602 C 178.710 162.361,178.866 162.315,178.015 163.068 C 175.068 165.675,169.016 169.070,163.491 171.215 C 162.025 171.784,160.780 172.283,160.725 172.324 C 160.669 172.366,160.831 173.213,161.085 174.208 C 164.973 189.445,154.924 206.797,136.602 216.483 C 134.518 217.585,134.589 217.700,136.867 216.908 C 137.733 216.607,139.280 216.085,140.306 215.747 C 164.498 207.784,182.497 194.127,191.264 177.082 C 195.670 168.514,198.000 158.126,198.001 147.035 C 198.001 144.287,197.951 142.039,197.890 142.039 C 197.829 142.039,197.199 142.288,196.491 142.592 C 190.189 145.301,179.203 145.925,171.343 144.022 C 167.483 143.088,167.513 143.129,169.683 141.686 C 174.615 138.407,179.059 133.222,180.857 128.646 C 181.715 126.462,181.925 126.620,178.548 126.910 C 165.258 128.050,152.658 124.531,145.576 117.702 C 136.481 108.932,132.932 89.605,137.688 74.750 C 139.009 70.625,142.684 63.957,143.637 63.957 C 143.784 63.957,143.904 63.837,143.904 63.691 C 143.904 63.300,143.687 63.375,141.711 64.449 " stroke="none" fill="#e5320b" fill-rule="evenodd"></path></g></svg>